# xmcd
#
# Track frame offsets: 
#        150
#        14910
#        34342
#        52038
#        73820
#        94711
#        115326
#        136614
#        157574
#        175315
#
# Disc length: 2597 seconds
#
# Revision: 2
# Processed by: cddbd v1.5.2PL0 Copyright (c) Steve Scherf et al.
# Submitted via: ExactAudioCopy v1.3
#
DISCID=840a230a
DTITLE=范瑋琪 - 一比一
DYEAR=2005
DGENRE=Pop
TTITLE0=就是你
TTITLE1=一比一
TTITLE2=不眠
TTITLE3=一直到最后
TTITLE4=多麼多麼愛你
TTITLE5=沒那麼愛他
TTITLE6=Cold
TTITLE7=秋千
TTITLE8=親吻寂寞旅人
TTITLE9=全世界失眠
EXTD=
EXTT0=
EXTT1=
EXTT2=
EXTT3=
EXTT4=
EXTT5=
EXTT6=
EXTT7=
EXTT8=
EXTT9=
PLAYORDER=
